<mxfile host="app.diagrams.net" modified="2023-07-26T11:02:32.956Z" agent="Mozilla/5.0 (X11; Linux x86_64) AppleWebKit/537.36 (KHTML, like Gecko) Chrome/114.0.0.0 Safari/537.36" etag="VRILf3lAKtR7rwwnLOIy" version="21.6.5" type="github">
  <diagram name="Page-1" id="DIiuwBkSCmeWfkTvg8wK">
    <mxGraphModel dx="1259" dy="629" grid="1" gridSize="10" guides="1" tooltips="1" connect="1" arrows="1" fold="1" page="1" pageScale="1" pageWidth="827" pageHeight="1169" math="0" shadow="0">
      <root>
        <mxCell id="0" />
        <mxCell id="1" parent="0" />
        <mxCell id="6iJfFuvVedpLByLeKexy-10" style="edgeStyle=orthogonalEdgeStyle;rounded=0;orthogonalLoop=1;jettySize=auto;html=1;" edge="1" parent="1" source="6iJfFuvVedpLByLeKexy-9">
          <mxGeometry relative="1" as="geometry">
            <mxPoint x="80" y="490" as="targetPoint" />
          </mxGeometry>
        </mxCell>
        <mxCell id="6iJfFuvVedpLByLeKexy-11" style="edgeStyle=orthogonalEdgeStyle;rounded=0;orthogonalLoop=1;jettySize=auto;html=1;" edge="1" parent="1" source="6iJfFuvVedpLByLeKexy-9" target="BKSUDl8zih05ZRJYCw6Q-28">
          <mxGeometry relative="1" as="geometry" />
        </mxCell>
        <mxCell id="6iJfFuvVedpLByLeKexy-12" style="edgeStyle=orthogonalEdgeStyle;rounded=0;orthogonalLoop=1;jettySize=auto;html=1;" edge="1" parent="1" source="6iJfFuvVedpLByLeKexy-9">
          <mxGeometry relative="1" as="geometry">
            <mxPoint x="260" y="490" as="targetPoint" />
          </mxGeometry>
        </mxCell>
        <mxCell id="6iJfFuvVedpLByLeKexy-13" style="edgeStyle=orthogonalEdgeStyle;rounded=0;orthogonalLoop=1;jettySize=auto;html=1;" edge="1" parent="1" source="6iJfFuvVedpLByLeKexy-9">
          <mxGeometry relative="1" as="geometry">
            <mxPoint x="570" y="490" as="targetPoint" />
          </mxGeometry>
        </mxCell>
        <mxCell id="6iJfFuvVedpLByLeKexy-14" style="edgeStyle=orthogonalEdgeStyle;rounded=0;orthogonalLoop=1;jettySize=auto;html=1;" edge="1" parent="1" source="6iJfFuvVedpLByLeKexy-9">
          <mxGeometry relative="1" as="geometry">
            <mxPoint x="660" y="490" as="targetPoint" />
          </mxGeometry>
        </mxCell>
        <mxCell id="6iJfFuvVedpLByLeKexy-15" style="edgeStyle=orthogonalEdgeStyle;rounded=0;orthogonalLoop=1;jettySize=auto;html=1;" edge="1" parent="1" source="6iJfFuvVedpLByLeKexy-9" target="BKSUDl8zih05ZRJYCw6Q-14">
          <mxGeometry relative="1" as="geometry" />
        </mxCell>
        <mxCell id="6iJfFuvVedpLByLeKexy-9" value="" style="whiteSpace=wrap;html=1;aspect=fixed;fillColor=#dae8fc;strokeColor=#6c8ebf;movable=1;resizable=1;rotatable=1;deletable=1;editable=1;locked=0;connectable=1;" vertex="1" parent="1">
          <mxGeometry x="289" y="604" width="250" height="250" as="geometry" />
        </mxCell>
        <mxCell id="BKSUDl8zih05ZRJYCw6Q-20" value="" style="edgeStyle=orthogonalEdgeStyle;rounded=0;orthogonalLoop=1;jettySize=auto;html=1;" parent="1" source="BKSUDl8zih05ZRJYCw6Q-7" target="BKSUDl8zih05ZRJYCw6Q-10" edge="1">
          <mxGeometry relative="1" as="geometry" />
        </mxCell>
        <mxCell id="BKSUDl8zih05ZRJYCw6Q-7" value="Tailwind Traders Tanent" style="image;aspect=fixed;html=1;points=[];align=center;fontSize=12;image=img/lib/azure2/general/Management_Groups.svg;movable=0;resizable=0;rotatable=0;deletable=0;editable=0;locked=1;connectable=0;" parent="1" vertex="1">
          <mxGeometry x="381" y="30" width="72.19" height="70" as="geometry" />
        </mxCell>
        <mxCell id="BKSUDl8zih05ZRJYCw6Q-29" style="edgeStyle=orthogonalEdgeStyle;rounded=0;orthogonalLoop=1;jettySize=auto;html=1;entryX=0.5;entryY=0.013;entryDx=0;entryDy=0;entryPerimeter=0;" parent="1" source="BKSUDl8zih05ZRJYCw6Q-8" target="BKSUDl8zih05ZRJYCw6Q-27" edge="1">
          <mxGeometry relative="1" as="geometry" />
        </mxCell>
        <mxCell id="BKSUDl8zih05ZRJYCw6Q-31" style="edgeStyle=orthogonalEdgeStyle;rounded=0;orthogonalLoop=1;jettySize=auto;html=1;" parent="1" source="BKSUDl8zih05ZRJYCw6Q-8" edge="1">
          <mxGeometry relative="1" as="geometry">
            <mxPoint x="80" y="380" as="targetPoint" />
          </mxGeometry>
        </mxCell>
        <mxCell id="BKSUDl8zih05ZRJYCw6Q-41" value="" style="edgeStyle=orthogonalEdgeStyle;rounded=0;orthogonalLoop=1;jettySize=auto;html=1;" parent="1" source="BKSUDl8zih05ZRJYCw6Q-8" target="BKSUDl8zih05ZRJYCw6Q-28" edge="1">
          <mxGeometry relative="1" as="geometry" />
        </mxCell>
        <mxCell id="BKSUDl8zih05ZRJYCw6Q-8" value="Apparel" style="image;aspect=fixed;html=1;points=[];align=center;fontSize=12;image=img/lib/azure2/general/Management_Groups.svg;" parent="1" vertex="1">
          <mxGeometry x="130" y="221" width="66" height="64" as="geometry" />
        </mxCell>
        <mxCell id="BKSUDl8zih05ZRJYCw6Q-21" style="edgeStyle=orthogonalEdgeStyle;rounded=0;orthogonalLoop=1;jettySize=auto;html=1;entryX=0.628;entryY=0.037;entryDx=0;entryDy=0;entryPerimeter=0;" parent="1" source="BKSUDl8zih05ZRJYCw6Q-10" target="BKSUDl8zih05ZRJYCw6Q-8" edge="1">
          <mxGeometry relative="1" as="geometry" />
        </mxCell>
        <mxCell id="BKSUDl8zih05ZRJYCw6Q-22" style="edgeStyle=orthogonalEdgeStyle;rounded=0;orthogonalLoop=1;jettySize=auto;html=1;entryX=0.526;entryY=0.013;entryDx=0;entryDy=0;entryPerimeter=0;" parent="1" source="BKSUDl8zih05ZRJYCw6Q-10" target="BKSUDl8zih05ZRJYCw6Q-11" edge="1">
          <mxGeometry relative="1" as="geometry">
            <Array as="points">
              <mxPoint x="653" y="200" />
            </Array>
          </mxGeometry>
        </mxCell>
        <mxCell id="BKSUDl8zih05ZRJYCw6Q-10" value="IT Management Group" style="image;aspect=fixed;html=1;points=[];align=center;fontSize=12;image=img/lib/azure2/general/Management_Groups.svg;movable=1;resizable=1;rotatable=1;deletable=1;editable=1;locked=0;connectable=1;" parent="1" vertex="1">
          <mxGeometry x="381" y="150" width="72.19" height="70" as="geometry" />
        </mxCell>
        <mxCell id="BKSUDl8zih05ZRJYCw6Q-35" style="edgeStyle=orthogonalEdgeStyle;rounded=0;orthogonalLoop=1;jettySize=auto;html=1;entryX=0.447;entryY=-0.041;entryDx=0;entryDy=0;entryPerimeter=0;" parent="1" source="BKSUDl8zih05ZRJYCw6Q-11" target="BKSUDl8zih05ZRJYCw6Q-13" edge="1">
          <mxGeometry relative="1" as="geometry" />
        </mxCell>
        <mxCell id="BKSUDl8zih05ZRJYCw6Q-36" style="edgeStyle=orthogonalEdgeStyle;rounded=0;orthogonalLoop=1;jettySize=auto;html=1;" parent="1" source="BKSUDl8zih05ZRJYCw6Q-11" edge="1">
          <mxGeometry relative="1" as="geometry">
            <mxPoint x="750" y="379.9999999999998" as="targetPoint" />
          </mxGeometry>
        </mxCell>
        <mxCell id="BKSUDl8zih05ZRJYCw6Q-42" style="edgeStyle=orthogonalEdgeStyle;rounded=0;orthogonalLoop=1;jettySize=auto;html=1;entryX=0.273;entryY=0;entryDx=0;entryDy=0;entryPerimeter=0;" parent="1" source="BKSUDl8zih05ZRJYCw6Q-11" target="BKSUDl8zih05ZRJYCw6Q-15" edge="1">
          <mxGeometry relative="1" as="geometry" />
        </mxCell>
        <mxCell id="BKSUDl8zih05ZRJYCw6Q-11" value="Sporting Goods" style="image;aspect=fixed;html=1;points=[];align=center;fontSize=12;image=img/lib/azure2/general/Management_Groups.svg;" parent="1" vertex="1">
          <mxGeometry x="618" y="221" width="66" height="64" as="geometry" />
        </mxCell>
        <mxCell id="BKSUDl8zih05ZRJYCw6Q-13" value="Product Development" style="image;aspect=fixed;html=1;points=[];align=center;fontSize=12;image=img/lib/azure2/general/Subscriptions.svg;" parent="1" vertex="1">
          <mxGeometry x="547" y="390" width="44" height="71" as="geometry" />
        </mxCell>
        <mxCell id="BKSUDl8zih05ZRJYCw6Q-14" value="Sales" style="image;aspect=fixed;html=1;points=[];align=center;fontSize=12;image=img/lib/azure2/general/Subscriptions.svg;" parent="1" vertex="1">
          <mxGeometry x="730" y="390" width="44" height="71" as="geometry" />
        </mxCell>
        <mxCell id="BKSUDl8zih05ZRJYCw6Q-15" value="Marketing" style="image;aspect=fixed;html=1;points=[];align=center;fontSize=12;image=img/lib/azure2/general/Subscriptions.svg;" parent="1" vertex="1">
          <mxGeometry x="647" y="390" width="44" height="71" as="geometry" />
        </mxCell>
        <mxCell id="BKSUDl8zih05ZRJYCw6Q-24" style="edgeStyle=orthogonalEdgeStyle;rounded=0;orthogonalLoop=1;jettySize=auto;html=1;entryX=0.006;entryY=0.571;entryDx=0;entryDy=0;entryPerimeter=0;" parent="1" source="BKSUDl8zih05ZRJYCw6Q-16" target="BKSUDl8zih05ZRJYCw6Q-7" edge="1">
          <mxGeometry relative="1" as="geometry" />
        </mxCell>
        <mxCell id="BKSUDl8zih05ZRJYCw6Q-16" value="Top level Management" style="rounded=1;whiteSpace=wrap;html=1;" parent="1" vertex="1">
          <mxGeometry x="220" y="10" width="80" height="40" as="geometry" />
        </mxCell>
        <mxCell id="BKSUDl8zih05ZRJYCw6Q-26" value="Product Development" style="image;aspect=fixed;html=1;points=[];align=center;fontSize=12;image=img/lib/azure2/general/Subscriptions.svg;" parent="1" vertex="1">
          <mxGeometry x="55" y="390" width="44" height="71" as="geometry" />
        </mxCell>
        <mxCell id="BKSUDl8zih05ZRJYCw6Q-27" value="Sales" style="image;aspect=fixed;html=1;points=[];align=center;fontSize=12;image=img/lib/azure2/general/Subscriptions.svg;" parent="1" vertex="1">
          <mxGeometry x="240" y="390" width="44" height="71" as="geometry" />
        </mxCell>
        <mxCell id="BKSUDl8zih05ZRJYCw6Q-28" value="Marketing" style="image;aspect=fixed;html=1;points=[];align=center;fontSize=12;image=img/lib/azure2/general/Subscriptions.svg;" parent="1" vertex="1">
          <mxGeometry x="152" y="390" width="44" height="71" as="geometry" />
        </mxCell>
        <mxCell id="6iJfFuvVedpLByLeKexy-20" style="edgeStyle=orthogonalEdgeStyle;rounded=0;orthogonalLoop=1;jettySize=auto;html=1;" edge="1" parent="1">
          <mxGeometry relative="1" as="geometry">
            <mxPoint x="450" y="78" as="targetPoint" />
            <mxPoint x="621" y="60" as="sourcePoint" />
            <Array as="points">
              <mxPoint x="536" y="60" />
              <mxPoint x="536" y="79" />
            </Array>
          </mxGeometry>
        </mxCell>
        <mxCell id="6iJfFuvVedpLByLeKexy-1" value="" style="image;aspect=fixed;html=1;points=[];align=center;fontSize=12;image=img/lib/azure2/management_governance/Policy.svg;" vertex="1" parent="1">
          <mxGeometry x="621" y="10" width="60" height="64" as="geometry" />
        </mxCell>
        <mxCell id="6iJfFuvVedpLByLeKexy-2" value="" style="image;aspect=fixed;html=1;points=[];align=center;fontSize=12;image=img/lib/azure2/identity/Custom_Azure_AD_Roles.svg;" vertex="1" parent="1">
          <mxGeometry x="580" y="218" width="32" height="32" as="geometry" />
        </mxCell>
        <mxCell id="6iJfFuvVedpLByLeKexy-3" value="Cost Budget&lt;br&gt;" style="image;aspect=fixed;html=1;points=[];align=center;fontSize=12;image=img/lib/azure2/general/Cost_Budgets.svg;movable=1;resizable=1;rotatable=1;deletable=1;editable=1;locked=0;connectable=1;" vertex="1" parent="1">
          <mxGeometry x="470" y="620" width="45.32" height="46" as="geometry" />
        </mxCell>
        <mxCell id="6iJfFuvVedpLByLeKexy-4" value="Cost Management" style="image;aspect=fixed;html=1;points=[];align=center;fontSize=12;image=img/lib/azure2/general/Cost_Management.svg;movable=1;resizable=1;rotatable=1;deletable=1;editable=1;locked=0;connectable=1;" vertex="1" parent="1">
          <mxGeometry x="327.8" y="620" width="40.2" height="36" as="geometry" />
        </mxCell>
        <mxCell id="6iJfFuvVedpLByLeKexy-19" style="edgeStyle=orthogonalEdgeStyle;rounded=0;orthogonalLoop=1;jettySize=auto;html=1;entryX=0.679;entryY=1;entryDx=0;entryDy=0;entryPerimeter=0;" edge="1" parent="1" source="6iJfFuvVedpLByLeKexy-5" target="BKSUDl8zih05ZRJYCw6Q-10">
          <mxGeometry relative="1" as="geometry" />
        </mxCell>
        <mxCell id="6iJfFuvVedpLByLeKexy-5" value="Cost Management&lt;br&gt;&amp;nbsp;and Billing" style="image;aspect=fixed;html=1;points=[];align=center;fontSize=12;image=img/lib/azure2/general/Cost_Management_and_Billing.svg;" vertex="1" parent="1">
          <mxGeometry x="458.65999999999997" y="270" width="68" height="68" as="geometry" />
        </mxCell>
        <mxCell id="6iJfFuvVedpLByLeKexy-6" value="Cost analysis&lt;br&gt;" style="image;aspect=fixed;html=1;points=[];align=center;fontSize=12;image=img/lib/azure2/general/Cost_Analysis.svg;movable=1;resizable=1;rotatable=1;deletable=1;editable=1;locked=0;connectable=1;" vertex="1" parent="1">
          <mxGeometry x="308" y="760" width="60" height="70" as="geometry" />
        </mxCell>
        <mxCell id="6iJfFuvVedpLByLeKexy-7" value="Cost Management&lt;br&gt;&amp;nbsp;and Billing" style="image;aspect=fixed;html=1;points=[];align=center;fontSize=12;image=img/lib/azure2/general/Cost_Management_and_Billing.svg;movable=1;resizable=1;rotatable=1;deletable=1;editable=1;locked=0;connectable=1;" vertex="1" parent="1">
          <mxGeometry x="397.1" y="690" width="40" height="40" as="geometry" />
        </mxCell>
        <mxCell id="6iJfFuvVedpLByLeKexy-16" value="Monitor" style="image;aspect=fixed;html=1;points=[];align=center;fontSize=12;image=img/lib/azure2/management_governance/Monitor.svg;" vertex="1" parent="1">
          <mxGeometry x="470" y="784.68" width="45.32" height="45.32" as="geometry" />
        </mxCell>
        <mxCell id="6iJfFuvVedpLByLeKexy-23" style="edgeStyle=orthogonalEdgeStyle;rounded=0;orthogonalLoop=1;jettySize=auto;html=1;" edge="1" parent="1" source="6iJfFuvVedpLByLeKexy-21" target="BKSUDl8zih05ZRJYCw6Q-10">
          <mxGeometry relative="1" as="geometry" />
        </mxCell>
        <mxCell id="6iJfFuvVedpLByLeKexy-21" value="" style="image;aspect=fixed;html=1;points=[];align=center;fontSize=12;image=img/lib/azure2/management_governance/Policy.svg;" vertex="1" parent="1">
          <mxGeometry x="722" y="120" width="60" height="64" as="geometry" />
        </mxCell>
        <mxCell id="6iJfFuvVedpLByLeKexy-24" value="" style="image;aspect=fixed;html=1;points=[];align=center;fontSize=12;image=img/lib/azure2/identity/Custom_Azure_AD_Roles.svg;" vertex="1" parent="1">
          <mxGeometry x="90" y="220" width="30" height="30" as="geometry" />
        </mxCell>
        <mxCell id="6iJfFuvVedpLByLeKexy-25" value="&lt;font style=&quot;font-size: 15px;&quot;&gt;-Policies&lt;br&gt;-rabc&lt;br&gt;-budjet&lt;/font&gt;" style="text;strokeColor=none;align=center;fillColor=none;html=1;verticalAlign=middle;whiteSpace=wrap;rounded=0;" vertex="1" parent="1">
          <mxGeometry x="681" y="206.5" width="68.47" height="78.5" as="geometry" />
        </mxCell>
        <mxCell id="6iJfFuvVedpLByLeKexy-26" value="&lt;font style=&quot;font-size: 15px;&quot;&gt;-Policies&lt;br&gt;-rabc&lt;br&gt;-budjet&lt;/font&gt;" style="text;strokeColor=none;align=center;fillColor=none;html=1;verticalAlign=middle;whiteSpace=wrap;rounded=0;" vertex="1" parent="1">
          <mxGeometry x="196" y="206.5" width="68.47" height="78.5" as="geometry" />
        </mxCell>
        <mxCell id="6iJfFuvVedpLByLeKexy-27" value="&lt;font style=&quot;font-size: 15px;&quot;&gt;-Policies&lt;br&gt;-rabc&lt;br&gt;-budjet&lt;/font&gt;" style="text;strokeColor=none;align=center;fillColor=none;html=1;verticalAlign=middle;whiteSpace=wrap;rounded=0;" vertex="1" parent="1">
          <mxGeometry x="458.66" y="120" width="68.47" height="78.5" as="geometry" />
        </mxCell>
        <mxCell id="6iJfFuvVedpLByLeKexy-30" value="&lt;font style=&quot;font-size: 15px;&quot;&gt;-Policies&lt;br&gt;-rabc&lt;br&gt;-budjet&lt;/font&gt;" style="text;strokeColor=none;align=center;fillColor=none;html=1;verticalAlign=middle;whiteSpace=wrap;rounded=0;" vertex="1" parent="1">
          <mxGeometry x="458.66" y="10" width="68.47" height="78.5" as="geometry" />
        </mxCell>
      </root>
    </mxGraphModel>
  </diagram>
</mxfile>
